# Blender v3.1.2 OBJ File: ''
# www.blender.org
o Cube
v 1.000000 1.000000 -1.000000
v 1.000000 -1.000000 -1.000000
v 1.000000 1.000000 1.000000
v 1.000000 -1.000000 1.000000
v -1.000000 1.000000 -1.000000
v -1.000000 -1.000000 -1.000000
v -1.000000 1.000000 1.000000
v -1.000000 -1.000000 1.000000
vt 0.989062 0.013281
vt 0.014063 0.988281
vt 0.014063 0.013281
vt 0.992188 0.012500
vt 0.017187 0.987500
vt 0.017187 0.012500
vt 0.989844 0.007812
vt 0.014844 0.982813
vt 0.014844 0.007812
vt 0.988281 0.010937
vt 0.013281 0.985937
vt 0.013281 0.010937
vt 0.987500 0.008594
vt 0.012500 0.983594
vt 0.012500 0.008594
vt 0.989844 0.014062
vt 0.014844 0.989062
vt 0.014844 0.014062
vt 0.989062 0.988281
vt 0.992188 0.987500
vt 0.989844 0.982813
vt 0.988281 0.985937
vt 0.987500 0.983594
vt 0.989844 0.989062
vn 0.0000 1.0000 0.0000
vn 0.0000 0.0000 1.0000
vn -1.0000 0.0000 0.0000
vn 0.0000 -1.0000 0.0000
vn 1.0000 0.0000 0.0000
vn 0.0000 0.0000 -1.0000
s off
f 5/1/1 3/2/1 1/3/1
f 3/4/2 8/5/2 4/6/2
f 7/7/3 6/8/3 8/9/3
f 2/10/4 8/11/4 6/12/4
f 1/13/5 4/14/5 2/15/5
f 5/16/6 2/17/6 6/18/6
f 5/1/1 7/19/1 3/2/1
f 3/4/2 7/20/2 8/5/2
f 7/7/3 5/21/3 6/8/3
f 2/10/4 4/22/4 8/11/4
f 1/13/5 3/23/5 4/14/5
f 5/16/6 1/24/6 2/17/6
